<?xml version="1.0" encoding="utf-8"?>
<!-- Generator: Adobe Illustrator 16.0.0, SVG Export Plug-In . SVG Version: 6.00 Build 0)  -->
<!DOCTYPE svg PUBLIC "-//W3C//DTD SVG 1.1//EN" "http://www.w3.org/Graphics/SVG/1.1/DTD/svg11.dtd">
<svg version="1.1" id="Layer_1" xmlns="http://www.w3.org/2000/svg" xmlns:xlink="http://www.w3.org/1999/xlink" x="0px" y="0px"
	 width="864px" height="864px" viewBox="0 0 864 864" enable-background="new 0 0 864 864" xml:space="preserve">
<path fill="#58595B" d="M768.368,499.682c-4.019-1.338-8.037-2.01-12.056-2.01c-6.97-2.944-12.998-4.552-18.084-4.822h-34.962
	l-4.421,2.412h-9.243h-22.504l-3.215,2.41l-19.29-2.41h-3.215c-3.755,0.27-6.699,1.073-8.841,2.41H620.08h-9.243h-8.841h-7.635
	c-5.363-2.141-10.317-2.944-14.869-2.41c-2.147-5.357-2.55-10.18-1.206-14.468c-1.073-1.067-1.745-2.272-2.009-3.616l-1.206-3.215
	l-1.205-3.617l-1.206-2.01c-1.344-0.804-2.009-1.607-2.009-2.411l-5.627-8.841l-10.046-19.289l-1.206-21.299v-3.215
	c0.534-3.749,0.936-6.832,1.206-9.243v-3.215l2.009-3.215v-3.617l2.411-18.084v-3.215l-2.411-2.411v-3.215v-22.504
	c-3.215-4.282-4.69-9.105-4.42-14.467c-6.431-7.233-8.71-15.535-6.832-24.916c-3.755-4.282-6.028-8.841-6.832-13.664
	c-6.166-4.822-12.458-8.169-18.888-10.046c-1.344-5.086-2.147-9.507-2.411-13.262c-9.914-10.712-12.859-22.366-8.841-34.962
	c1.067-15.805,7.096-28.533,18.084-38.177v-3.617c4.282-5.89,6.43-12.188,6.43-18.888l3.617-1.206
	c2.675-2.675,4.552-4.954,5.626-6.832l2.009-2.009c6.431-4.019,11.385-7.768,14.869-11.252v-6.832
	c10.179,2.411,17.683,7.635,22.505,15.672c3.479,1.877,6.027,3.755,7.635,5.626h12.458c14.197-5.89,27.729-6.964,40.589-3.215
	l4.42-2.412v-3.215l-2.411-1.206c-1.607-5.086-3.484-9.243-5.626-12.458c-5.362-2.675-9.111-5.626-11.252-8.841
	c-10.448-4.019-18.223-10.448-23.309-19.29c-4.019-1.337-7.371-2.813-10.046-4.42c-18.223-23.842-40.457-37.373-66.71-40.588h-2.009
	h-2.412h-2.009c-24.382,18.756-50.371,26.259-77.962,22.504c-5.626,0-10.448,0.804-14.467,2.411l-2.411,3.215l-2.01,1.206
	c-0.804,1.344-1.607,2.009-2.411,2.009l-1.205,2.411l-2.01,1.206l-1.205,2.009l-1.206,2.411l-4.421,8.038l-4.42,6.43l-1.206,3.617
	c1.607,8.841,2.01,16.345,1.206,22.504c-3.215,5.626-5.896,9.783-8.037,12.458c-2.411,5.626-5.362,10.046-8.842,13.261v4.42
	l-4.42,8.038c-3.755,6.166-6.028,11.792-6.832,16.878l-4.42,6.832c-6.971,4.289-11.522,9.513-13.664,15.672l-1.205,14.467
	c0,10.185-0.672,18.486-2.01,24.916l-2.411,3.215c-2.411,9.381-6.97,17.28-13.663,23.71l-3.215,8.037
	c-1.878,5.896-2.951,11.12-3.215,15.673c-3.215,6.43-4.822,12.728-4.822,18.887c-2.682,5.626-4.157,10.185-4.421,13.664
	l-6.832,3.215c0,7.504-1.476,13.934-4.42,19.29c0,13.13-3.755,24.382-11.253,33.757c-2.951,9.111-6.699,16.614-11.252,22.504
	c-1.073,8.307-3.353,15.007-6.831,20.093c-8.578,5.092-17.148,7.371-25.72,6.832l-3.215-2.01c-13.13-1.338-24.382-4.42-33.757-9.243
	h-4.42h-4.822h-4.42h-18.888h-3.617h-13.262h-6.832h-12.458l-1.206,2.411h-12.458c-6.166,2.148-12.056,2.813-17.682,2.01
	l-6.832,4.822H104.89c-3.215,2.682-6.298,4.42-9.243,5.225c-0.54,1.073-1.206,1.475-2.009,1.205l-2.411,2.411l-3.215,2.009
	l-3.617,1.206c-3.755,4.289-7.503,7.372-11.252,9.243v3.215c-4.559,6.97-7.503,13.664-8.841,20.094
	c0,7.232,0.402,13.261,1.206,18.084c2.141,3.754,3.617,7.095,4.42,10.046l2.411,3.616c1.067,0.805,1.739,1.47,2.009,2.01
	l1.206,2.412c1.338,0.803,2.142,1.607,2.412,2.41c3.479,2.412,6.028,4.553,7.635,6.43l2.411,2.412l13.262,19.289l1.206,3.215
	l1.206,2.411c4.822,9.646,7.767,18.216,8.841,25.72c1.067,1.066,1.469,2.141,1.206,3.215l2.411,2.411l1.206,3.215
	c3.749,4.019,6.694,7.767,8.841,11.252c42.058,25.983,85.861,36.569,131.41,31.747l4.822,1.206h4.421h4.42l2.411,0.804l17.683,1.205
	l4.822,1.206l11.252,3.215l15.673,2.411l4.42,1.206l12.458,2.009l3.215,1.206c8.842,0.264,16.339,1.067,22.505,2.411l5.626,2.009
	c5.626,2.142,10.179,4.421,13.663,6.832c4.822,1.337,8.974,2.812,12.458,4.421l4.421,1.205l4.42,1.206l4.421,2.411h3.616
	l7.636,2.009c6.693,3.215,13.123,5.086,19.29,5.626l3.215,1.206l5.626,1.205l3.616,1.206l4.421,0.804l3.215,1.205l2.411,1.206
	l6.832,2.411l3.215,0.804h3.215l3.616,1.206l13.262,4.42l14.869,1.206c5.086,1.067,9.507,1.469,13.262,1.205
	c7.233,1.067,13.663,1.067,19.289,0c6.16,0.264,11.786-0.138,16.879-1.205h8.841h3.617h3.215h3.616h3.215h22.505
	c4.552-1.344,8.702-2.01,12.458-2.01l8.841-1.205c4.282-1.607,8.438-2.813,12.458-3.617h3.215l9.242-0.804l7.636-2.411l8.037-1.206
	c3.749-2.411,7.497-3.887,11.252-4.42c3.749-2.951,7.498-5.225,11.253-6.832l3.215-3.215l3.616-3.616l4.421-2.01l3.215-3.617
	l1.206-2.009c5.355-3.485,9.908-6.832,13.663-10.047l3.215-1.205l28.131-20.495c0.533-1.344,1.337-2.01,2.411-2.01l2.009-3.616
	l2.411-2.01l2.01-2.411l2.411-3.215l2.411-1.206l0.804-2.411l2.411-3.215l2.411-2.411l2.01-2.009l11.252-15.674v-4.822v-4.42v-4.42
	v-19.29v-3.215v-13.663C784.574,527.674,780.424,511.203,768.368,499.682z"/>
<path d="M521.222,70.088h2.009H521.222h2.009h2.412h2.009c26.253,3.215,48.487,16.747,66.71,40.588
	c2.675,1.607,6.027,3.083,10.046,4.42c5.086,8.841,12.86,15.271,23.309,19.29c2.141,3.215,5.89,6.166,11.252,8.841
	c2.142,3.215,4.019,7.372,5.626,12.458l2.411,1.206v3.215l-4.42,2.412c-12.86-3.749-26.392-2.675-40.589,3.215h-12.458
	c-1.607-1.871-4.156-3.749-7.635-5.626c-4.822-8.037-12.326-13.261-22.505-15.672v6.832c-3.484,3.485-8.438,7.233-14.869,11.252
	l-2.009,2.009c-1.074,1.877-2.951,4.157-5.626,6.832l-3.617,1.206c0,6.7-2.147,12.998-6.43,18.888v3.617
	c-10.988,9.645-17.017,22.373-18.084,38.177c-4.019,12.596-1.073,24.25,8.841,34.962c0.264,3.755,1.067,8.176,2.411,13.262
	c6.43,1.877,12.722,5.224,18.888,10.046c0.804,4.823,3.077,9.381,6.832,13.664c-1.878,9.381,0.401,17.682,6.832,24.916
	c-0.271,5.362,1.205,10.185,4.42,14.467v22.504v3.215l2.411,2.411v3.215l-2.411,18.084v3.617l-2.009,3.215v3.215
	c-0.271,2.411-0.672,5.494-1.206,9.243v3.215l1.206,21.299l10.046,19.289l5.627,8.841c0,0.804,0.665,1.607,2.009,2.411l1.206,2.01
	l1.205,3.617l1.206,3.215c0.264,1.344,0.936,2.549,2.009,3.616c-1.344,4.288-0.941,9.11,1.206,14.468
	c4.552-0.534,9.506,0.27,14.869,2.41h7.635h8.841h9.243h12.458c2.142-1.337,5.086-2.141,8.841-2.41h3.215l19.29,2.41l3.215-2.41
	h22.504h9.243l4.421-2.412h34.962c5.086,0.271,11.114,1.878,18.084,4.822c4.019,0,8.037,0.672,12.056,2.01
	c12.056,11.521,16.206,27.992,12.458,49.43v13.663v3.215v19.29v4.42v4.42v4.822l-11.252,15.674l-2.01,2.009l-2.411,2.411
	l-2.411,3.215l-0.804,2.411l-2.411,1.206l-2.411,3.215l-2.01,2.411l-2.411,2.01l-2.009,3.616c-1.074,0-1.878,0.666-2.411,2.01
	l-28.131,20.495l-3.215,1.205c-3.755,3.215-8.308,6.562-13.663,10.047l-1.206,2.009l-3.215,3.617l-4.421,2.01l-3.616,3.616
	l-3.215,3.215c-3.755,1.607-7.504,3.881-11.253,6.832c-3.755,0.533-7.503,2.009-11.252,4.42l-8.037,1.206l-7.636,2.411l-9.242,0.804
	h-3.215c-4.02,0.804-8.176,2.01-12.458,3.617l-8.841,1.205c-3.756,0-7.906,0.666-12.458,2.01h-22.505h-3.215h-3.616h-3.215h-3.617
	h-8.841c-5.093,1.067-10.719,1.469-16.879,1.205c-5.626,1.067-12.056,1.067-19.289,0c-3.755,0.264-8.176-0.138-13.262-1.205
	l-14.869-1.206l-13.262-4.42l-3.616-1.206h-3.215l-3.215-0.804l-6.832-2.411l-2.411-1.206l-3.215-1.205l-4.421-0.804l-3.616-1.206
	l-5.626-1.205l-3.215-1.206c-6.167-0.54-12.597-2.411-19.29-5.626l-7.636-2.009h-3.616l-4.421-2.411l-4.42-1.206l-4.421-1.205
	c-3.484-1.608-7.636-3.084-12.458-4.421c-3.484-2.411-8.037-4.69-13.663-6.832l-5.626-2.009c-6.166-1.344-13.663-2.147-22.505-2.411
	l-3.215-1.206l-12.458-2.009l-4.42-1.206l-15.673-2.411l-11.252-3.215l-4.822-1.206l-17.683-1.205l-2.411-0.804h-4.42h-4.421
	l-4.822-1.206c-45.549,4.822-89.352-5.764-131.41-31.747c-2.147-3.485-5.092-7.233-8.841-11.252l-1.206-3.215l-2.411-2.411
	c0.264-1.074-0.138-2.148-1.206-3.215c-1.074-7.504-4.019-16.074-8.841-25.72l-1.206-2.411l-1.206-3.215l-13.262-19.289
	l-2.411-2.412c-1.607-1.877-4.157-4.018-7.635-6.43c-0.27-0.803-1.074-1.607-2.412-2.41l-1.206-2.412
	c-0.27-0.54-0.942-1.205-2.009-2.01l-2.411-3.616c-0.804-2.951-2.279-6.292-4.42-10.046c-0.804-4.823-1.206-10.852-1.206-18.084
	c1.337-6.43,4.282-13.124,8.841-20.094v-3.215c3.749-1.871,7.498-4.954,11.252-9.243l3.617-1.206l3.215-2.009l2.411-2.411
	c0.804,0.27,1.469-0.132,2.009-1.205c2.945-0.805,6.028-2.543,9.243-5.225h11.252l6.832-4.822c5.626,0.804,11.516,0.139,17.682-2.01
	h12.458l1.206-2.411h12.458h6.832h13.262h3.617h18.888h4.42h4.822h4.42c9.375,4.823,20.627,7.905,33.757,9.243l3.215,2.01
	c8.571,0.539,17.142-1.74,25.72-6.832c3.479-5.086,5.758-11.786,6.831-20.093c4.553-5.89,8.301-13.394,11.252-22.504
	c7.498-9.375,11.253-20.627,11.253-33.757c2.944-5.356,4.42-11.786,4.42-19.29l6.832-3.215c0.264-3.479,1.739-8.037,4.421-13.664
	c0-6.16,1.607-12.458,4.822-18.887c0.264-4.553,1.337-9.777,3.215-15.673l3.215-8.037c6.693-6.43,11.252-14.329,13.663-23.71
	l2.411-3.215c1.338-6.43,2.01-14.73,2.01-24.916l1.205-14.467c2.142-6.16,6.693-11.384,13.664-15.672l4.42-6.832
	c0.804-5.086,3.077-10.712,6.832-16.878l4.42-8.038v-4.42c3.479-3.215,6.431-7.635,8.842-13.261
	c2.141-2.675,4.822-6.832,8.037-12.458c0.804-6.16,0.401-13.664-1.206-22.504l1.206-3.617l4.42-6.43l4.421-8.038l1.206-2.411
	l1.205-2.009l2.01-1.206l1.205-2.411c0.804,0,1.607-0.666,2.411-2.009l2.01-1.206l2.411-3.215c4.019-1.607,8.841-2.411,14.467-2.411
	C470.851,96.348,496.84,88.844,521.222,70.088z M545.735,347.777c-0.54,6.43-0.138,14.737,1.205,24.916l-1.205,8.037l-2.01,7.636
	c-5.626,0.27-11.252-1.206-16.878-4.42l-3.617,1.206c4.553,11.522,2.273,17.148-6.831,16.878c-0.54,1.074-0.804,2.55-0.804,4.421
	c-12.596,3.215-25.054,1.344-37.374-5.626c-6.166-4.552-14.064-7.899-23.71-10.046c-0.27-0.804-0.941-1.607-2.009-2.411
	c-16.075-5.89-17.551-4.684-4.421,3.617c4.553,1.877,8.973,4.822,13.262,8.841l3.617,1.206l2.009,2.01l4.421,2.411
	c0.264,0.804,1.067,1.607,2.411,2.411l2.411,0.804l0.804,2.411c4.019,3.215,8.973,5.896,14.869,8.037l1.205,4.421l-13.663,1.206
	l-13.663-9.243l-6.431-4.42h-3.616l-3.215-2.411l-2.411-3.215l-3.215-1.206l-3.617-2.009c-2.147-2.945-5.092-5.225-8.841-6.832
	l-6.832-8.037l-3.215-1.206l-4.42-3.215c-1.878-0.264-3.755-1.068-5.627-2.411l-3.616-3.215l-3.215-3.215
	c-4.019,3.485-7.773,7.906-11.252,13.262c-7.774,1.344-15.271,4.69-22.505,10.046c5.626,1.877,9.375,6.43,11.252,13.664
	c-7.773,1.344-16.477,4.69-26.121,10.046c-3.755-2.675-8.577-4.954-14.467-6.832c-8.037-7.767-18.222-10.712-30.542-8.841
	c-7.503,7.773-12.728,17.952-15.673,30.541c-1.877,3.485-3.755,8.308-5.626,14.468c-2.411,1.878-4.69,4.421-6.831,7.636l-2.01-2.01
	l-2.411,3.215c-19.025,1.877-38.045-1.469-57.065-10.047l-28.13-2.009l-34.962,4.421h-5.626l-21.299,4.42h-3.617l-4.42,1.205
	l-4.42,0.805c-5.626,0-11.654,1.607-18.084,4.822h-3.215c-2.681,0.803-5.363,2.681-8.038,5.626h-4.42
	c-1.344,2.147-2.147,5.093-2.411,8.841c8.571-1.338,16.477-5.488,23.71-12.458l20.093-3.215l3.617-1.206h3.215l3.617-1.205
	l3.215-1.205l4.42-0.805h12.458l8.038-1.205h4.42l18.888-3.215h5.626c17.142-0.804,34.824,2.812,53.046,10.85
	c3.479,1.344,7.899,1.344,13.262,0l9.243,2.412c3.215,0,6.159,0.401,8.841,1.205h3.617h5.626h6.43
	c2.944-2.141,3.347-5.225,1.205-9.242c2.411-0.534,5.488-0.534,9.243,0c9.104-20.357,24.112-30.002,45.009-28.935
	c4.019-2.411,9.243-3.881,15.673-4.42c5.086-2.675,11.114-4.283,18.084-4.823l3.215-0.804c7.497,5.896,16.878,9.645,28.131,11.252
	l2.411,2.009c19.289-2.141,39.112,2.411,59.476,13.663c31.609,2.682,60.543,16.074,86.803,40.187l-2.411,10.448l6.832,2.01
	l-3.617-7.635c1.067-15.535-4.157-29.871-15.673-43c0.804,5.092-1.073,8.841-5.626,11.252l-4.421-7.635
	c2.675-2.142,6.028-3.348,10.047-3.617c-0.54-3.479-1.607-7.498-3.215-12.057l-1.206-24.915
	c-7.503,0.804-13.531-2.945-18.083-11.252l2.411-8.037l7.635,1.206c2.411,0,5.488,0.402,9.243,1.206
	C553.232,379.662,552.429,363.852,545.735,347.777z M416.335,452.664l-13.262,2.009c-16.345,0-33.625,4.157-51.84,12.458h-4.421
	c-0.804,0.27-1.607,1.073-2.411,2.411c10.712,0,11.516,1.476,2.411,4.421c-4.019-0.264-8.176,0.138-12.458,1.205
	c-8.841-5.086-19.025-7.365-30.542-6.832c5.627,2.951,13.525,5.494,23.71,7.636c3.216,1.878,6.964,3.083,11.253,3.616l8.037,3.215
	l5.626,1.206l6.43,2.411l8.037,2.01l8.038,1.205h3.215l11.252,3.215l18.084,2.412h3.215h3.616l3.216,1.205l18.083,2.01
	c9.375,4.288,20.226,6.166,32.552,5.625l2.411,1.206c3.479,0.54,7.233,1.745,11.252,3.616h7.636l42.999,3.215h4.421h3.215
	l3.616-1.205h3.215l3.216,1.205h11.252l3.616-1.205c4.823,1.074,10.851,1.476,18.084,1.205h3.215h3.215h8.038h3.215h4.42h3.617
	h3.215h12.458l3.215-1.205h4.822l52.645,1.205h12.457c5.627-1.066,12.32-1.469,20.094-1.205l2.411-1.205
	c1.067,0.27,2.141,0,3.215-0.805h3.617c6.693,0.805,14.599,0.402,23.71-1.205h3.215l6.831,1.205c1.871-0.264,3.749-1.066,5.627-2.41
	c-6.431-1.068-14.737-1.871-24.916-2.412h-4.421c-2.147,0.805-5.092,1.206-8.841,1.206c-4.559-0.804-9.915-1.206-16.074-1.206
	l-3.215-0.803h-4.421c-4.559,0.803-9.783,1.073-15.673,0.803h-4.822h-6.43h-5.626l-8.037-0.803c-3.485,0.27-8.038,0.27-13.664,0
	l-2.009,0.803h-22.505l-5.626,1.206h-5.626h-6.832c-5.092,0.271-11.12-0.401-18.084-2.009c-3.484,0.27-7.503-0.133-12.056-1.206
	l-20.495,2.009l-2.009,1.206c-5.896-1.337-12.729-1.337-20.495,0l-2.01-1.206c-5.626-1.066-11.252-1.066-16.878,0
	c-5.362-1.607-11.792-2.272-19.29-2.009c6.16-2.944,13.664-4.15,22.505-3.616c11.516,0.539,12.59-1.338,3.215-5.627l-20.094-10.047
	l-1.205-2.009c-2.951-1.607-6.7-3.215-11.252-4.822c-7.504-6.43-17.28-10.448-29.336-12.056c0.264-2.142,0-4.421-0.805-6.832
	c-8.841,0.54-19.427-0.936-31.747-4.42h-3.215h-4.42H416.335z M343.195,330.095c-2.147,2.411-3.616,6.166-4.42,11.252
	c-10.185,12.056-16.615,27.063-19.29,45.009c5.356-2.945,9.507-8.571,12.458-16.878c8.301,4.019,15.133,10.316,20.495,18.888
	c5.086,0,10.982-1.469,17.682-4.42c10.449,0.54,19.554-2.813,27.327-10.047c1.338-8.037-4.289-7.365-16.878,2.009l-5.626-0.804
	c-10.989,1.344-23.045-0.534-36.168-5.626v-6.832C344.935,353.001,346.41,342.151,343.195,330.095z M455.718,208.33
	c2.411,11.792,9.507,21.569,21.299,29.336c4.019,9.111,10.851,16.615,20.495,22.504v3.215c-3.755,2.411-8.709,3.617-14.869,3.617
	c-9.111-7.497-20.363-12.458-33.757-14.869c-4.288-5.356-10.586-9.375-18.888-12.056c-3.484-3.215-8.037-6.292-13.663-9.243
	c-1.607-2.141-3.887-4.019-6.832-5.626l-3.215-2.009c-1.344-3.215-2.147-6.963-2.411-11.252l-0.804,5.626
	c-2.951-2.675-6.699-4.282-11.252-4.822c12.59,25.456,32.814,46.886,60.682,64.298l4.42,8.037c3.749-0.534,7.498,0.138,11.253,2.009
	c4.282-4.552,9.506-6.43,15.673-5.626c1.871,3.485,3.076,7.635,3.616,12.458c-3.215,0.54-6.97,0.942-11.252,1.206
	c0-4.019-3.083-5.225-9.243-3.617l-2.009,5.626c-9.382,4.019-18.486,10.85-27.327,20.495c-1.073-0.264-2.147,0.138-3.215,1.206
	c-15.007-2.141-28.532-9.645-40.589-22.504c-12.596-3.215-21.166-8.169-25.719-14.869l3.215-4.42
	c7.497,2.951,15.402,3.755,23.71,2.411c6.16,2.681,14.467,5.224,24.916,7.635l4.42,1.206l4.421-1.206v-3.215
	c-5.093-1.337-11.12-4.019-18.084-8.037h-3.215l-2.411-2.009c-8.308,0-18.354-1.872-30.14-5.626h-3.617
	c-6.166,3.215-10.988,8.439-14.467,15.673l-3.617,1.206l-2.009,2.009c6.693,5.092,15.271,8.841,25.719,11.252
	c2.142,3.485,5.225,6.568,9.243,9.243c1.067,2.411,2.944,4.559,5.626,6.43c13.927,20.897,31.879,25.456,53.85,13.664
	c10.712-2.675,20.094-9.104,28.131-19.29c5.086-1.067,10.311-4.019,15.673-8.841c10.448-2.945,21.028-2.543,31.747,1.206
	c-0.271-4.019,1.205-6.292,4.421-6.832l4.42,4.42c-1.344,9.381,2.01,16.212,10.047,20.495c2.675-15.535-2.951-25.72-16.879-30.542
	c-3.755-6.43-9.782-12.458-18.083-18.084c-0.804-2.675-2.682-5.224-5.627-7.635l-3.215-19.29
	c-9.11-5.086-15.811-12.991-20.093-23.71l-2.411-1.206c0,2.147-0.804,4.019-2.411,5.626
	C468.439,218.113,463.215,212.889,455.718,208.33z M373.737,473.963c6.964-0.805,16.338-0.402,28.131,1.205h3.215h3.616
	c0.534,1.607,1.607,3.083,3.215,4.42c8.038-1.607,16.608-0.936,25.72,2.01h12.458h3.616l5.626,1.205
	c3.479,1.878,6.431,4.961,8.842,9.244c-5.626,0.803-11.654,0-18.084-2.412l-6.832-1.205l-7.636,3.617
	c-6.43,0.27-12.457-0.534-18.083-2.412h-12.458l-2.01-1.205h-3.616l-4.421-1.206c-3.485-0.534-7.636-0.804-12.458-0.804
	l-3.215-1.205l-5.626-1.206l-4.421-1.206l-3.616-1.205h-4.421c-2.681-0.533-5.626-2.01-8.841-4.42l12.056-2.01
	C367.709,475.438,370.786,475.036,373.737,473.963z M369.316,400.823v3.215C372.262,402.97,372.262,401.896,369.316,400.823z
	 M436.83,99.425c-7.504,3.485-14.335,9.513-20.495,18.084l-3.215,8.841c1.067,12.326-1.607,24.652-8.037,36.972v12.458l-2.01,5.626
	c-2.147,2.147-4.019,5.225-5.626,9.243l7.636-8.038c1.871-5.356,2.272-10.982,1.205-16.878l1.206-2.411l5.626-13.262l3.215-11.252
	l-1.206-12.458l2.412-4.42c5.355-10.712,14.328-17.814,26.925-21.299L436.83,99.425z M426.382,144.434
	c-5.362,6.166-9.111,14.335-11.253,24.514c-4.019,5.896-6.97,13.399-8.841,22.504c4.822-0.804,9.646-2.675,14.468-5.626l8.037-0.804
	c7.768,6.166,17.142,9.915,28.13,11.252c2.142-11.516-2.009-21.701-12.457-30.542C442.858,154.48,436.83,147.385,426.382,144.434z
	 M419.952,458.289c7.497-0.803,16.878-0.131,28.13,2.01h3.215c2.142,7.504-5.362,10.587-22.504,9.243
	C416.467,467.934,413.521,464.186,419.952,458.289z M421.961,486.42c3.479,0.804,7.233,0.804,11.252,0H421.961z M444.466,314.02
	l6.831,2.412C444.327,323.401,442.055,322.598,444.466,314.02z M511.979,112.686c-16.614,10.449-35.766,14.204-57.467,11.252
	l-5.626,2.411l3.617,8.037c18.485-0.534,35.364,6.166,50.635,20.093c9.645-3.749,2.813-10.448-20.495-20.093l18.084-9.243
	l3.617-1.206c2.675-0.804,5.626-2.675,8.841-5.626C516.663,115.901,516.261,114.03,511.979,112.686z M462.55,458.289v3.215
	c7.767,1.074,16.739,3.756,26.925,8.038l3.616,0.804l2.01,1.205l3.616-2.009l3.215,0.804c5.356,1.877,10.982,4.961,16.879,9.242
	c-6.166-0.533-12.194-3.215-18.084-8.037h-3.215c3.748,4.289,8.571,7.372,14.467,9.243c3.215,2.681,7.768,5.224,13.664,7.636
	l2.009,1.205l9.243,5.627l3.215,3.215l4.42,2.41c-0.54-3.215-2.411-6.159-5.626-8.84c4.282,3.484,9.646,6.027,16.075,7.635
	l0.804-4.42c-15.271-23.842-38.447-35.095-69.522-33.758c-5.362-1.607-12.194-2.674-20.495-3.215H462.55z M488.269,123.938
	c-1.344,3.215-3.887,4.019-7.636,2.411C483.045,126.086,485.588,125.282,488.269,123.938z M513.185,172.564
	c-8.308,1.607-15.812,5.764-22.505,12.458C510.233,176.984,517.736,172.834,513.185,172.564z M493.895,270.217
	c3.215,4.559,2.142,4.961-3.215,1.206C491.747,271.962,492.821,271.561,493.895,270.217z M506.353,285.086
	c16.338,3.755,14.869,4.822-4.421,3.215L506.353,285.086z M504.344,191.452c-1.878,8.577-0.402,11.924,4.42,10.046
	C510.635,196.946,509.166,193.599,504.344,191.452z M507.559,467.131c15.534,4.019,29.468,12.596,41.794,25.719
	c-6.431-2.675-15.14-7.898-26.122-15.672l-2.009-1.206l-3.617-0.804l-4.42-3.617l-4.421-1.205L507.559,467.131z M516.399,430.159
	l9.243,2.009c1.067,3.214,1.739,6.97,2.009,11.251c-3.215,1.344-5.093,0.271-5.626-3.215l-4.421,4.421
	C515.728,440.607,515.325,435.785,516.399,430.159z M531.269,485.215l6.831,5.626C534.615,490.307,532.336,488.43,531.269,485.215z
	 M535.688,101.434c-5.092,14.737,0.936,25.719,18.084,32.953c-2.411,12.596-2.009,15.943,1.206,10.047l2.009-8.038
	c11.252-2.945,9.776-9.243-4.42-18.887C550.156,108.404,544.529,103.042,535.688,101.434z M773.994,553.934v22.504v8.842
	C778.013,575.634,778.013,565.186,773.994,553.934z"/>
</svg>
